<svg 
          width="19.502702713012695" 
          height="22" fill="none" 
          xmlns="http://www.w3.org/2000/svg">
          <path d="M 9.751351356506348 12.375 C 12.779603047296405 12.375 15.236486494541168 9.603515625 15.236486494541168 6.1875 C 15.236486494541168 2.771484375 12.779603047296405 0 9.751351356506348 0 C 6.7230996657162905 0 4.266216218471527 2.771484375 4.266216218471527 6.1875 C 4.266216218471527 9.603515625 6.7230996657162905 12.375 9.751351356506348 12.375 Z M 14.627027034759521 13.75 L 12.528200787646142 13.75 C 11.682575758137816 14.188281241804361 10.741722978651524 14.4375 9.751351356506348 14.4375 C 8.760979734361172 14.4375 7.823936018375932 14.188281241804361 6.974501925366553 13.75 L 4.875675678253174 13.75 C 2.182626806588189 13.75 0 16.21210950613022 0 19.25 L 0 19.9375 C 0 21.076171875 0.8189611490815878 22 1.8283783793449402 22 L 17.674324333667755 22 C 18.683741563931108 22 19.502702713012695 21.076171875 19.502702713012695 19.9375 L 19.502702713012695 19.25 C 19.502702713012695 16.21210950613022 17.320075906424506 13.75 14.627027034759521 13.75 Z" fill="rgb(91.37499645352364,91.37499645352364,91.37499645352364)"/>
        </svg>